<svg width="178" height="20" viewBox="0 0 178 20" fill="none" xmlns="http://www.w3.org/2000/svg">
<g clip-path="url(#clip0_5567_14958)">
<path d="M45.0981 19.9036V1.9901C45.0981 0.896465 45.9975 0 47.0946 0C47.6432 0 48.1443 0.223459 48.5162 0.596767L61.07 13.1105V0H65.0629V17.9135C65.0629 19.0072 64.1636 19.9036 63.0665 19.9036C62.5179 19.9036 62.0168 19.6802 61.6449 19.3069L49.0911 6.79316V19.9063H45.0981V19.9036Z" fill="white"/>
<path d="M87.652 3.9802H71.6775V7.9604H83.6591C85.856 7.9604 87.652 9.7507 87.652 11.9406V15.9208C87.652 18.1107 85.856 19.901 83.6591 19.901H67.6846V15.9208H83.6591V11.9406H71.6775C69.4806 11.9406 67.6846 10.1503 67.6846 7.9604V3.9802C67.6846 1.7903 69.4806 0 71.6775 0H87.652V3.9802Z" fill="white"/>
<path d="M94.2664 19.9036C92.0695 19.9036 90.2734 18.1133 90.2734 15.9234V3.9802C90.2734 1.7903 92.0695 0 94.2664 0H110.241V3.9802H94.2664V15.9234H110.241V19.9036H94.2664Z" fill="white"/>
<path d="M128.834 0C131.031 0 132.827 1.7903 132.827 3.9802V19.9036H128.834V11.9406H116.853V19.9036H112.86V3.9802C112.86 1.7903 114.656 0 116.853 0H128.834ZM116.853 7.96303H128.834V3.98283H116.853V7.96303Z" fill="white"/>
<path d="M139.439 19.9036C137.242 19.9036 135.446 18.1133 135.446 15.9234V0H139.439V15.9234H155.414V19.9036H139.439Z" fill="white"/>
<path d="M178 3.9802H162.026V7.9604H178V11.9406H162.026V15.9208H178V19.901H162.026C159.829 19.901 158.033 18.1107 158.033 15.9208V3.9802C158.033 1.7903 159.829 0 162.026 0H178V3.9802Z" fill="white"/>
<path d="M35.3422 2.1956C35.3422 0.280586 33.0215 -0.680756 31.6599 0.670211L12.9884 19.1957C12.7217 19.4603 12.9097 19.9142 13.286 19.9142H15.9841C16.1121 19.9142 16.2398 19.9046 16.3663 19.8853L20.5294 19.2515C23.165 18.8502 25.8476 18.8665 28.4781 19.2999L32.0012 19.8803C32.1377 19.9028 32.2757 19.9141 32.4139 19.9141H34.3108C34.8804 19.9141 35.3422 19.4538 35.3422 18.8859V2.1956Z" fill="white"/>
<path opacity="0.6" d="M6.48226 19.9076C6.10659 19.9076 5.9183 19.455 6.18375 19.19L19.0945 6.30177C19.8494 5.54823 21.0743 5.54779 21.8297 6.30078C22.5847 7.05338 22.5847 8.27358 21.8297 9.02618L11.4991 19.3238C11.1241 19.6976 10.6155 19.9076 10.0852 19.9076L6.48226 19.9076Z" fill="white"/>
<path opacity="0.4" d="M1.00181 19.9113C0.111565 19.9113 -0.334737 18.8388 0.294129 18.2107L8.13992 10.3743C8.89461 9.62055 10.1196 9.61994 10.8751 10.373C11.63 11.1255 11.63 12.3455 10.8751 13.098L4.62564 19.3274C4.25065 19.7012 3.74207 19.9112 3.21176 19.9112L1.00181 19.9113Z" fill="white"/>
</g>
<defs>
<clipPath id="clip0_5567_14958">
<rect width="178" height="20" fill="white"/>
</clipPath>
</defs>
</svg>
